<svg data-v-423bf9ae="" xmlns="http://www.w3.org/2000/svg" viewBox="0 0 536 90" class="iconLeft"><!----><!----><!----><g data-v-423bf9ae="" id="41019c6d-5482-427a-9060-a6078568a003" fill="black" transform="matrix(6.006006240844727,0,0,6.006006240844727,120.99552154541016,-8.903908729553223)"><path d="M1.15 3.98L1.15 13.78L1.90 13.78L1.90 9.20L6.75 9.20L6.75 8.53L1.90 8.53L1.90 4.65L7.03 4.65L7.03 3.98ZM8.23 10.30C8.23 12.43 9.58 13.97 11.65 13.97C13.72 13.97 15.06 12.43 15.06 10.30C15.06 8.18 13.72 6.64 11.65 6.64C9.58 6.64 8.23 8.18 8.23 10.30ZM8.93 10.30C8.93 8.60 9.98 7.28 11.65 7.28C13.30 7.28 14.36 8.53 14.36 10.30C14.36 12.05 13.30 13.33 11.65 13.33C9.98 13.33 8.93 12.12 8.93 10.30ZM16.79 8.55C16.79 9.81 17.82 10.28 19.22 10.49L19.98 10.60C21.13 10.77 21.95 11.03 21.95 11.84C21.95 12.71 21.08 13.33 19.74 13.33C18.34 13.33 17.37 12.61 16.90 11.34L16.25 11.61C16.72 12.78 17.82 13.97 19.74 13.97C21.53 13.97 22.65 13.06 22.65 11.83C22.65 10.68 21.70 10.19 20.09 9.95L19.33 9.84C18.31 9.69 17.49 9.42 17.49 8.53C17.49 7.70 18.24 7.25 19.29 7.25C20.38 7.25 21.39 7.78 22.08 8.86L22.65 8.51C21.69 7.18 20.62 6.64 19.28 6.64C17.89 6.64 16.79 7.36 16.79 8.55ZM23.41 6.83L23.41 7.45L25.73 7.45L25.73 12.85C25.73 13.44 26.07 13.78 26.63 13.78L28.48 13.78L28.48 13.16L26.82 13.16C26.57 13.16 26.43 13.02 26.43 12.74L26.43 7.45L28.87 7.45L28.87 6.83L26.43 6.83L26.43 4.40L25.73 4.40L25.73 6.83ZM30.13 10.25C30.13 12.35 31.50 13.97 33.61 13.97C35.42 13.97 36.19 12.98 36.65 12.03L35.98 11.76C35.59 12.64 34.93 13.33 33.61 13.33C32.03 13.33 30.95 12.24 30.86 10.46L36.86 10.46L36.86 10.01C36.86 7.90 35.45 6.64 33.57 6.64C31.63 6.64 30.13 8.20 30.13 10.25ZM30.86 9.84C31.02 8.26 32.14 7.28 33.57 7.28C35.01 7.28 36.08 8.18 36.13 9.84ZM39.38 6.83L38.71 6.83L38.71 13.78L39.41 13.78L39.41 9.31C39.41 8.04 40.07 7.45 41.13 7.45L42.27 7.45L42.27 6.80L41.26 6.80C40.32 6.80 39.83 7.07 39.55 7.69L39.38 7.69ZM43.75 3.98L43.75 13.78L49.85 13.78L49.85 13.10L44.51 13.10L44.51 3.98ZM50.95 4.80C50.95 5.21 51.24 5.52 51.66 5.52C52.08 5.52 52.37 5.21 52.37 4.80C52.37 4.40 52.08 4.09 51.66 4.09C51.24 4.09 50.95 4.40 50.95 4.80ZM52.01 6.83L51.31 6.83L51.31 13.78L52.01 13.78ZM54.31 6.83L54.31 13.78L55.01 13.78L55.01 10.22C55.01 8.29 56.11 7.34 57.55 7.34C58.86 7.34 59.71 7.98 59.71 9.52L59.71 13.78L60.41 13.78L60.41 9.46C60.41 7.57 59.12 6.69 57.69 6.69C56.27 6.69 55.55 7.41 55.17 8.12L54.98 8.12L54.98 6.83ZM68.96 6.83L67.80 6.83L63.49 10.50L63.32 10.50L63.32 3.98L62.62 3.98L62.62 13.78L63.32 13.78L63.32 11.51L65.25 9.91L68.07 13.78L68.92 13.78L65.77 9.48Z"></path></g><!----><g data-v-423bf9ae="" id="db17cfd8-c36d-4f45-aa2e-bd18dc0c485b" transform="matrix(1.1555814743041992,0,0,1.1555814743041992,-4.661132335662842,-15.130552291870117)" stroke="none" fill="black"><path clip-rule="evenodd" d="M95.934 26.48l-3.713 8.296c-1.01 1.928-2.794 3.025-5.35 3.293h-1.395c-1.708-.105-3.567-.14-5.577-.105-2.429.395-4.59.912-6.483 1.551a8.312 8.312 0 0 1-4.55.227c-.615-.174-1.487-.512-2.614-1.011-.418-.209-1.487-.931-3.207-2.162-1.789-1.29-3.485-2.329-5.089-3.119-1.405-.768-4.101-2.046-8.087-3.835-2.277-1.104-3.753-2.097-4.426-2.979-.663-.895-.75-1.976-.262-3.242.267-.72.808-1.255 1.621-1.604 1.138-.581 2.498-.535 4.079.14 1.904.86 3.224 1.453 3.956 1.778 1.29.581 3.317 1.325 6.082 2.23.942.291 1.883.489 2.823.593h1.203l-1.08-.488c-6.356-2.916-10.533-4.799-12.531-5.647-1.952-.813-3.643-.941-5.072-.382-1.383.581-2.335 1.417-2.858 2.509-.279.616-.471 1.447-.575 2.492-.744-.046-2.26-.111-4.549-.192-4.799 2.313-7.401 3.544-7.808 3.695-.941.314-1.906.488-2.893.523-1.081-.024-1.876-.216-2.388-.576-.604-.255-1.034-.895-1.29-1.917-.175-1.047.737-2.179 2.736-3.399l10.596-6.867a164.38 164.38 0 0 0 14.937-2.457 4.83 4.83 0 0 1 3.102.296c3.115 1.604 6.659 3.23 10.632 4.88 1.977.813 3.887 1.575 5.734 2.284 3.277 1.057 6.024 1.667 8.244 1.83h.018c2.439.023 7.784-.941 16.034-2.894 2.672-.59 2.672 1.496 0 6.259zM25.73 31.831c3.405 5.019 6.298 10.091 8.68 15.215 3.764 8.168 5.49 15.047 5.176 20.636-.058.302-.209.604-.453.906-.348.384-.604.61-.767.68-4.276 1.371-8.511 1.731-12.706 1.081C19.351 69.21 13.919 65.73 9.365 59.91c.825-7.576 2.347-13.485 4.566-17.726l2.962-4.113c2.674-2.917 5.619-4.996 8.837-6.24z"></path><path clip-rule="evenodd" d="M79.011 48.388c-.709-.917-1.587-1.476-2.632-1.672-9.572.235-14.992-1.101-16.261-4.009-2.406-5.798-6.397-9.499-11.974-11.102-5.577-1.592-11.648-.93-18.213 1.986 2.893 4.613 5.287 9.132 7.18 13.56 3.509 7.878 5.072 14.617 4.688 20.218 0 1.022-.389 1.992-1.167 2.91-.686.93-1.511 1.546-2.475 1.849-3.01 1.01-7.129 1.301-12.357.871-5.24-.442-10.904-3.167-16.993-8.175-1.385 6.83-2.799 11.271-4.244 13.324 14.306 8.29 28.217 12.767 41.733 13.429 2.091-7.355 3.184-11.137 3.277-11.346.523-1.36.837-2.133.941-2.318.244-.406.546-.784.906-1.133.789-.778 1.69-1.243 2.702-1.395 5.959-.813 11.095-2.66 15.406-5.542 6.519-4.321 9.997-10.521 10.439-18.597.096-1.022-.225-1.975-.956-2.858zm-25.83 2.057a3.402 3.402 0 0 1-2.475 1.01c-.988 0-1.818-.336-2.493-1.01-.685-.674-1.028-1.505-1.028-2.492 0-.977.343-1.802 1.028-2.475.674-.674 1.504-1.012 2.493-1.012a3.4 3.4 0 0 1 2.475 1.012c.675.673 1.012 1.498 1.012 2.475-.001.986-.338 1.818-1.012 2.492z"></path></g><!----></svg>