<svg data-v-423bf9ae="" xmlns="http://www.w3.org/2000/svg" viewBox="0 0 407.26726193510547 60" class="font"><!----><!----><!----><g data-v-423bf9ae="" id="dd42a9c0-f2ee-4185-b1fe-d1f8efa385b7" fill="black" transform="matrix(6.006006240844727,0,0,6.006006240844727,-6.906914234161377,-23.903907775878906)"><path d="M1.15 3.98L1.15 13.78L1.90 13.78L1.90 9.20L6.75 9.20L6.75 8.53L1.90 8.53L1.90 4.65L7.03 4.65L7.03 3.98ZM8.23 10.30C8.23 12.43 9.58 13.97 11.65 13.97C13.72 13.97 15.06 12.43 15.06 10.30C15.06 8.18 13.72 6.64 11.65 6.64C9.58 6.64 8.23 8.18 8.23 10.30ZM8.93 10.30C8.93 8.60 9.98 7.28 11.65 7.28C13.30 7.28 14.36 8.53 14.36 10.30C14.36 12.05 13.30 13.33 11.65 13.33C9.98 13.33 8.93 12.12 8.93 10.30ZM16.79 8.55C16.79 9.81 17.82 10.28 19.22 10.49L19.98 10.60C21.13 10.77 21.95 11.03 21.95 11.84C21.95 12.71 21.08 13.33 19.74 13.33C18.34 13.33 17.37 12.61 16.90 11.34L16.25 11.61C16.72 12.78 17.82 13.97 19.74 13.97C21.53 13.97 22.65 13.06 22.65 11.83C22.65 10.68 21.70 10.19 20.09 9.95L19.33 9.84C18.31 9.69 17.49 9.42 17.49 8.53C17.49 7.70 18.24 7.25 19.29 7.25C20.38 7.25 21.39 7.78 22.08 8.86L22.65 8.51C21.69 7.18 20.62 6.64 19.28 6.64C17.89 6.64 16.79 7.36 16.79 8.55ZM23.41 6.83L23.41 7.45L25.73 7.45L25.73 12.85C25.73 13.44 26.07 13.78 26.63 13.78L28.48 13.78L28.48 13.16L26.82 13.16C26.57 13.16 26.43 13.02 26.43 12.74L26.43 7.45L28.87 7.45L28.87 6.83L26.43 6.83L26.43 4.40L25.73 4.40L25.73 6.83ZM30.13 10.25C30.13 12.35 31.50 13.97 33.61 13.97C35.42 13.97 36.19 12.98 36.65 12.03L35.98 11.76C35.59 12.64 34.93 13.33 33.61 13.33C32.03 13.33 30.95 12.24 30.86 10.46L36.86 10.46L36.86 10.01C36.86 7.90 35.45 6.64 33.57 6.64C31.63 6.64 30.13 8.20 30.13 10.25ZM30.86 9.84C31.02 8.26 32.14 7.28 33.57 7.28C35.01 7.28 36.08 8.18 36.13 9.84ZM39.38 6.83L38.71 6.83L38.71 13.78L39.41 13.78L39.41 9.31C39.41 8.04 40.07 7.45 41.13 7.45L42.27 7.45L42.27 6.80L41.26 6.80C40.32 6.80 39.83 7.07 39.55 7.69L39.38 7.69ZM43.75 3.98L43.75 13.78L49.85 13.78L49.85 13.10L44.51 13.10L44.51 3.98ZM50.95 4.80C50.95 5.21 51.24 5.52 51.66 5.52C52.08 5.52 52.37 5.21 52.37 4.80C52.37 4.40 52.08 4.09 51.66 4.09C51.24 4.09 50.95 4.40 50.95 4.80ZM52.01 6.83L51.31 6.83L51.31 13.78L52.01 13.78ZM54.31 6.83L54.31 13.78L55.01 13.78L55.01 10.22C55.01 8.29 56.11 7.34 57.55 7.34C58.86 7.34 59.71 7.98 59.71 9.52L59.71 13.78L60.41 13.78L60.41 9.46C60.41 7.57 59.12 6.69 57.69 6.69C56.27 6.69 55.55 7.41 55.17 8.12L54.98 8.12L54.98 6.83ZM68.96 6.83L67.80 6.83L63.49 10.50L63.32 10.50L63.32 3.98L62.62 3.98L62.62 13.78L63.32 13.78L63.32 11.51L65.25 9.91L68.07 13.78L68.92 13.78L65.77 9.48Z"></path></g><!----><!----></svg>